<?xml version="1.0" encoding="iso-8859-1"?>
<!-- Generator: Adobe Illustrator 16.0.0, SVG Export Plug-In . SVG Version: 6.00 Build 0)  -->
<!DOCTYPE svg PUBLIC "-//W3C//DTD SVG 1.1//EN" "http://www.w3.org/Graphics/SVG/1.1/DTD/svg11.dtd">
<svg version="1.1" id="Capa_1" xmlns="http://www.w3.org/2000/svg" xmlns:xlink="http://www.w3.org/1999/xlink" x="0px" y="0px"
	 width="485.212px" height="485.212px" viewBox="0 0 485.212 485.212" style="enable-background:new 0 0 485.212 485.212;"
	 xml:space="preserve">
<g>
	<path d="M288.095,45.49c0,25.114-20.377,45.488-45.49,45.488c-25.114,0-45.49-20.374-45.49-45.488
		c0-25.113,20.376-45.49,45.49-45.49C267.718,0,288.095,20.376,288.095,45.49z M272.931,121.304h-60.65
		c-16.765,0-30.327,13.562-30.327,30.324V272.93h30.327v121.307h60.65V272.93h30.322V151.628
		C303.253,134.867,289.691,121.304,272.931,121.304z M303.253,306.482v30.626c70.632,8.354,121.307,30.737,121.307,57.129
		c0,33.491-81.473,60.649-181.955,60.649S60.649,427.728,60.649,394.237c0-26.392,50.701-48.775,121.304-57.129v-30.626
		c-82.271,9.008-151.628,37.085-151.628,87.755c0,62.838,106.615,90.976,212.28,90.976c105.662,0,212.282-28.138,212.282-90.976
		C454.887,343.567,385.53,315.49,303.253,306.482z"/>
</g>
<g>
</g>
<g>
</g>
<g>
</g>
<g>
</g>
<g>
</g>
<g>
</g>
<g>
</g>
<g>
</g>
<g>
</g>
<g>
</g>
<g>
</g>
<g>
</g>
<g>
</g>
<g>
</g>
<g>
</g>
</svg>
